<svg xmlns="http://www.w3.org/2000/svg" 
    xmlns:xlink="http://www.w3.org/1999/xlink" viewBox="0 0 548.88 548.88">
    <defs>
        <style>.cls-1{isolation:isolate;}.cls-2{fill:#ffb259;}.cls-3{fill:#ff6b00;}.cls-4{fill:#a2d9e7;}.cls-5{fill:#00c1de;}.cls-6{fill:#60b1e7;}.cls-7{fill:#009ade;}.cls-8{fill:#6abf4b;}.cls-9{fill:#00b451;}.cls-10{opacity:0.49;}.cls-11,.cls-12,.cls-13,.cls-14{opacity:0.5;mix-blend-mode:multiply;}.cls-11{fill:url(#linear-gradient);}.cls-12{fill:url(#linear-gradient-2);}.cls-13{fill:url(#linear-gradient-3);}.cls-14{fill:url(#linear-gradient-4);}</style>
        <linearGradient id="linear-gradient" x1="481.02" y1="-19.17" x2="246.34" y2="215.52" gradientUnits="userSpaceOnUse">
            <stop offset="0" stop-color="#fff"/>
            <stop offset="1" stop-color="#ccc"/>
        </linearGradient>
        <linearGradient id="linear-gradient-2" x1="50.62" y1="395.09" x2="498.26" y2="395.09" xlink:href="#linear-gradient"/>
        <linearGradient id="linear-gradient-3" x1="92.67" y1="152.96" x2="349.83" y2="410.12" xlink:href="#linear-gradient"/>
        <linearGradient id="linear-gradient-4" x1="199.93" y1="79.53" x2="382.85" y2="262.45" xlink:href="#linear-gradient"/>
    </defs>
    <title>Logo</title>
    <g class="cls-1">
        <g id="Logo">
            <path class="cls-2" d="M281.72,214.1A183.51,183.51,0,0,1,514.26,37.38,159.24,159.24,0,0,0,283.54,239.9,184.68,184.68,0,0,1,281.72,214.1Z"/>
            <path class="cls-3" d="M282.25,103.65a183.6,183.6,0,0,1,232-66.27,159.24,159.24,0,0,0-232,66.27Z"/>
            <path class="cls-4" d="M493.73,260.62c-20.86,102-111.13,178.73-219.29,178.73S76.05,362.63,55.15,260.62a227.4,227.4,0,0,0-4.53,45.11c0,123.63,100.21,223.83,223.82,223.83s223.82-100.2,223.82-223.83a225.19,225.19,0,0,0-4.53-45.11"/>
            <path class="cls-5" d="M274.44,529.56a222.88,222.88,0,0,0,100.49-23.79c-48.34,16-103.08,16.84-156.25-1.14C110.18,467.92,44.08,365,55.34,261.48c0-.15-.07-.31-.1-.46-.09.13-.16.27-.24.41a227,227,0,0,0-4.38,44.3C50.62,429.36,150.83,529.56,274.44,529.56Z"/>
            <path class="cls-6" d="M171.58,77.87a180.89,180.89,0,0,0-28.44,23.23c-70.77,70.79-70.77,185.55,0,256.32A181.28,181.28,0,0,0,422.67,329a181.33,181.33,0,0,1-227.89-23.21c-61.91-61.92-69.64-157.53-23.2-227.89"/>
            <path class="cls-7" d="M143.14,357.42a180.81,180.81,0,0,0,56.77,38.48c-32.38-16.73-60-44-77.72-80.24-39.7-81.07-17.06-180.24,49.39-237.79a180.89,180.89,0,0,0-28.44,23.23C72.37,171.89,72.37,286.65,143.14,357.42Z"/>
            <path class="cls-8" d="M229.09,170c0-70.18,38.72-129.72,92.38-150.63a151.08,151.08,0,0,0-1.32,302.13c.9,0,1.78,0,2.69,0l1,0C268.94,301.41,229.09,241.16,229.09,170Z"/>
            <path class="cls-9" d="M171.67,167.8a150.52,150.52,0,0,0,15.75,69.87c-9.13-30.94-9.33-66.4,1.47-101.53C209.53,69.06,264,23.54,321.47,19.32A151.07,151.07,0,0,0,171.67,167.8Z"/>
        </g>
        <g id="Gradient_effect" data-name="Gradient effect" class="cls-10">
            <path class="cls-11" d="M281.72,214.1A183.51,183.51,0,0,1,514.26,37.38,159.24,159.24,0,0,0,283.54,239.9,184.68,184.68,0,0,1,281.72,214.1Z"/>
            <path class="cls-12" d="M493.73,260.62c-20.86,102-111.13,178.73-219.29,178.73S76.05,362.63,55.15,260.62a227.4,227.4,0,0,0-4.53,45.11c0,123.63,100.21,223.83,223.82,223.83s223.82-100.2,223.82-223.83a225.19,225.19,0,0,0-4.53-45.11"/>
            <path class="cls-13" d="M171.58,77.87a180.89,180.89,0,0,0-28.44,23.23c-70.77,70.79-70.77,185.55,0,256.32A181.28,181.28,0,0,0,422.67,329a181.33,181.33,0,0,1-227.89-23.21c-61.91-61.92-69.64-157.53-23.2-227.89"/>
            <path class="cls-14" d="M229.09,170c0-70.18,38.72-129.72,92.38-150.63a151.08,151.08,0,0,0-1.32,302.13c.9,0,1.78,0,2.69,0l1,0C268.94,301.41,229.09,241.16,229.09,170Z"/>
        </g>
    </g>
</svg>