<svg id="Layer_1" data-name="Layer 1" xmlns="http://www.w3.org/2000/svg" viewBox="0 0 548.88 548.88"><defs><style>.cls-1{fill:#fdf5a8;}.cls-2{fill:#f9b8bc;}.cls-3{fill:#74cac4;}.cls-4{fill:#cfe2d7;}</style></defs><title>Artboard 1</title><path class="cls-1" d="M493.73,260.62c-20.86,102-111.13,178.73-219.29,178.73S76.05,362.63,55.15,260.62a227.4,227.4,0,0,0-4.53,45.11c0,123.63,100.21,223.83,223.82,223.83s223.82-100.2,223.82-223.83a225.19,225.19,0,0,0-4.53-45.11"/><path class="cls-2" d="M171.58,77.87a180.89,180.89,0,0,0-28.44,23.23c-70.77,70.79-70.77,185.55,0,256.32A181.28,181.28,0,0,0,422.67,329a181.33,181.33,0,0,1-227.89-23.21c-61.91-61.92-69.64-157.53-23.2-227.89"/><path class="cls-3" d="M229.09,170c0-70.18,38.72-129.72,92.38-150.63a151.08,151.08,0,0,0-1.32,302.13c.9,0,1.78,0,2.69,0l1,0C268.94,301.41,229.09,241.16,229.09,170Z"/><path class="cls-4" d="M294,192.72A150.71,150.71,0,0,1,494.33,50.5,144.64,144.64,0,1,0,325.6,285.1,150,150,0,0,1,294,192.72Z"/></svg>